<svg id="Capa_1" enable-background="new 0 0 512 512" height="512" viewBox="0 0 512 512" width="512" xmlns="http://www.w3.org/2000/svg"><g><g><path d="m219.996 346.618 54.312 39.484 206.585-17.286c16.744-1.4 31.107 11.811 31.107 28.613 0 12.639-8.265 23.792-20.358 27.47l-199.194 60.583c-27.122 8.249-56.577 2.152-78.197-16.186l-106.813-90.6c-5.975-5.068-13.556-7.85-21.392-7.85h-75.378c-5.892 0-10.668-4.776-10.668-10.668v-53.55z" fill="#f1ccbd"/><path d="m491.642 392.896-199.194 60.583c-27.122 8.249-56.578 2.152-78.197-16.186l-106.813-90.6c-5.975-5.068-13.556-7.85-21.392-7.85h-75.378c-5.892 0-10.668-4.776-10.668-10.668v32.003c0 5.892 4.776 10.668 10.668 10.668h75.379c7.835 0 15.416 2.782 21.392 7.85l106.813 90.6c21.619 18.338 51.074 24.435 78.197 16.186l199.194-60.583c12.093-3.677 20.358-14.831 20.358-27.47 0-5.955-1.811-11.455-4.887-16.018-3.6 5.363-8.975 9.509-15.472 11.485z" fill="#eaad9c"/><path d="m10.668 252.695h175.578c8.792 0 17.234 3.451 23.508 9.61l83.578 82.041c10.674 10.478 10.797 27.637.273 38.267-10.608 10.715-27.937 10.666-38.484-.109l-31.202-31.876c-2.549-2.604-5.866-4.321-9.463-4.9l-214.456-34.49v-47.875c0-5.892 4.776-10.668 10.668-10.668z" fill="#f1ccbd"/><path d="m214.457 327.646c0 8.571 3.372 16.798 9.386 22.903l.077.078 31.202 31.876c10.547 10.775 27.876 10.825 38.484.109 9.491-9.586 10.319-24.482 2.561-35-.77 1.044-1.621 2.047-2.561 2.996-10.608 10.715-27.937 10.666-38.484-.109l-31.202-31.876c-.025-.026-.051-.052-.077-.078-3.439-3.469-9.386-.878-9.386 4.007z" fill="#eaad9c"/></g><g><path d="m500.887 197.688c0 62.47-50.642 113.113-113.113 113.113s-113.113-50.642-113.113-113.113c0-55.552 89.447-152.366 109.258-173.128 2.102-2.203 5.607-2.203 7.709 0 19.813 20.762 109.259 117.576 109.259 173.128z" fill="#e5979d"/><path d="m391.629 24.56c-2.102-2.202-5.607-2.202-7.709 0-2.804 2.939-7.005 7.403-12.147 13.056 31.193 34.286 97.111 112.383 97.111 160.072 0 57.038-42.22 104.206-97.111 111.981 5.228.74 10.569 1.132 16.002 1.132 62.47 0 113.113-50.642 113.113-113.113-.001-55.552-89.447-152.366-109.259-173.128z" fill="#e17f85"/><path d="m449.633 180.014h-40.65c-1.952 0-3.535-1.583-3.535-3.535v-40.65c0-3.904-3.165-7.07-7.07-7.07h-21.208c-3.904 0-7.07 3.165-7.07 7.07v40.65c0 1.952-1.583 3.535-3.535 3.535h-40.65c-3.904 0-7.07 3.165-7.07 7.07v21.209c0 3.904 3.165 7.07 7.07 7.07h40.65c1.952 0 3.535 1.583 3.535 3.535v40.65c0 3.904 3.165 7.07 7.07 7.07h21.209c3.904 0 7.07-3.165 7.07-7.07v-40.65c0-1.952 1.583-3.535 3.535-3.535h40.65c3.904 0 7.07-3.165 7.07-7.07v-21.209c-.001-3.905-3.166-7.07-7.071-7.07z" fill="#fff"/></g></g></svg>