<svg id="Layer_1" enable-background="new 0 0 512 512" height="512" viewBox="0 0 512 512" width="512" xmlns="http://www.w3.org/2000/svg"><g><g><path d="m217.333 64c-7.363 0-13.333 5.97-13.333 13.333v98.667h26.667v-98.667c0-7.363-5.97-13.333-13.334-13.333z" fill="#fab991"/></g><g><path d="m204.667 144h-104.667v128h114.667c10.245-10.245 16-24.139 16-38.627v-63.373c0-14.359-11.641-26-26-26z" fill="#f0915a"/></g><g><path d="m100 224v-56c0-13.255-10.745-24-24-24-4.418 0-8 3.582-8 8v88c0 17.673 14.327 32 32 32h56c0-26.51-21.49-48-48-48z" fill="#fab991"/></g><g><path d="m113.333 48c-7.363 0-13.333 5.97-13.333 13.333v82.667h26.667v-82.667c0-7.363-5.97-13.333-13.334-13.333z" fill="#fab991"/></g><g><path d="m148 16c-7.364 0-13.333 5.97-13.333 13.333v114.667h26.667v-114.667c-.001-7.363-5.97-13.333-13.334-13.333z" fill="#fab991"/></g><g><path d="m182.667 32c-7.364 0-13.333 5.97-13.333 13.333v98.667h26.666v-98.667c0-7.363-5.97-13.333-13.333-13.333z" fill="#fab991"/></g><g><path d="m100 272h114.667v224h-114.667z" fill="#fab991"/></g><g><path d="m214.667 496h-58.667v-192c0-8.837 7.163-16 16-16h42.667z" fill="#f0915a"/></g><g><path d="m396 256h-96c-26.51 0-48-21.49-48-48v-144c0-26.51 21.49-48 48-48h96c26.51 0 48 21.49 48 48v144c0 26.51-21.49 48-48 48z" fill="#d7e6f0"/></g><g><path d="m396 16h-48v240h48c26.51 0 48-21.49 48-48v-144c0-26.51-21.49-48-48-48z" fill="#a5c3dc"/></g><g><path d="m396 232h-96c-13.255 0-24-10.745-24-24v-144c0-13.255 10.745-24 24-24h96c13.255 0 24 10.745 24 24v144c0 13.255-10.745 24-24 24z" fill="#f05a4b"/></g><g><path d="m308 288c-4.418 0-8-3.582-8-8v-24h16v24c0 4.418-3.582 8-8 8z" fill="#a5c3dc"/></g><g><path d="m388 288c-4.418 0-8-3.582-8-8v-24h16v24c0 4.418-3.582 8-8 8z" fill="#a5c3dc"/></g><g><path d="m164 496h-16v-128c0-30.879 25.122-56 56-56s56 25.121 56 56v64c0 22.056 17.944 40 40 40s40-17.944 40-40v-200h16v200c0 30.879-25.121 56-56 56s-56-25.121-56-56v-64c0-22.056-17.944-40-40-40s-40 17.944-40 40z" fill="#d73728"/></g><g><path d="m340 232c8.837 0 16-7.163 16-16v-160c0-8.837-7.163-16-16-16h56c13.255 0 24 10.745 24 24v144c0 13.255-10.745 24-24 24z" fill="#d73728"/></g><g><path d="m304 216c-6.627 0-12-5.373-12-12v-136c0-6.627 5.373-12 12-12 6.627 0 12 5.373 12 12v136c0 6.627-5.373 12-12 12z" fill="#ff7869"/></g><g><path d="m388 176h-80c-8.837 0-16-7.163-16-16v-48c0-8.837 7.163-16 16-16h80c8.837 0 16 7.163 16 16v48c0 8.837-7.163 16-16 16z" fill="#d7e6f0"/></g><g><path d="m388 176h-32v-80h32c8.837 0 16 7.163 16 16v48c0 8.837-7.163 16-16 16z" fill="#a5c3dc"/></g></g></svg>